<svg width="19" height="19" viewBox="0 0 19 19" fill="none" xmlns="http://www.w3.org/2000/svg">
<path d="M13.8716 0.860001H5.12929C3.99656 0.861055 2.91235 1.31141 2.11177 2.11191C1.31128 2.91241 0.860916 3.99664 0.859863 5.12943V13.8707C0.860918 15.0034 1.31128 16.0876 2.11177 16.8882C2.91227 17.6887 3.99651 18.1391 5.12929 18.1401H13.8716C15.0033 18.1391 16.0886 17.6887 16.8881 16.8882C17.6886 16.0877 18.1389 15.0035 18.14 13.8707V5.12943C18.1389 3.9967 17.6886 2.91249 16.8881 2.11191C16.0886 1.31141 15.0033 0.861054 13.8716 0.860001ZM16.4999 13.8708C16.4978 15.322 15.3218 16.498 13.8716 16.5001H5.12929C3.67804 16.498 2.50206 15.322 2.49995 13.8708V5.12951C2.50206 3.67826 3.67804 2.50228 5.12929 2.50017H13.8716C15.3218 2.50228 16.4978 3.67826 16.4999 5.12951V13.8708Z" fill="#00AFCA"/>
<path d="M9.49998 5.38574C8.40837 5.38574 7.36212 5.81923 6.59019 6.59019C5.8192 7.36222 5.38574 8.40847 5.38574 9.49998C5.38574 10.5915 5.81923 11.6378 6.59124 12.4098C7.36222 13.1808 8.40953 13.6142 9.49995 13.6142C10.5916 13.6142 11.6378 13.1807 12.4097 12.4098C13.1818 11.6377 13.6152 10.5915 13.6152 9.49998C13.6142 8.40942 13.1796 7.36317 12.4087 6.59126C11.6366 5.82028 10.5904 5.3868 9.49998 5.38574ZM9.49998 11.9743C8.49909 11.9743 7.59626 11.3721 7.2134 10.4471C6.83054 9.52217 7.04254 8.45799 7.75024 7.75029C8.45794 7.04259 9.52212 6.83062 10.4471 7.21345C11.372 7.59631 11.9753 8.49911 11.9753 9.50003C11.9732 10.8669 10.8669 11.9733 9.49998 11.9743Z" fill="#00AFCA"/>
<path d="M13.7832 4.11783C13.3392 4.11783 12.9384 4.38572 12.7686 4.79599C12.5988 5.20625 12.6926 5.67875 13.0069 5.99306C13.3212 6.30737 13.7927 6.40122 14.204 6.23142C14.6143 6.06161 14.8822 5.66083 14.8822 5.21681C14.8822 4.61037 14.3896 4.11888 13.7832 4.11783Z" fill="#00AFCA"/>
</svg>
