<svg width="51" height="51" viewBox="0 0 51 51" fill="none" xmlns="http://www.w3.org/2000/svg">
<path d="M50.0377 43.9375C50.0258 40.4054 47.7627 37.2994 44.4058 36.2059C39.3735 34.5684 38.296 30.4424 32.1995 23.1193L46.864 2.49442C47.3162 1.85891 46.86 0.974365 46.0791 0.974365H28.6636C28.3747 0.974365 28.0998 1.10386 27.9185 1.32897L14.7422 17.4899L13.8756 16.6233C13.4572 16.2049 12.7619 16.2587 12.4153 16.7408C0.544027 33.1822 1.23916 32.1943 1.17337 32.3259C0.675322 33.324 1.09368 34.5312 2.09575 35.0074L16.1289 41.9541H7.04836C6.51643 41.9541 6.08615 42.3844 6.08615 42.9163C6.08615 43.4482 6.51646 43.8785 7.04836 43.8785H20.0177L24.4085 46.052H15.2443C14.7123 46.052 14.2821 46.4823 14.2821 47.0142C14.2821 47.5461 14.7124 47.9764 15.2443 47.9764H28.2952L31.8034 49.7136C32.2158 49.9188 32.678 50.0264 33.1382 50.0264H43.9538C47.3066 50.0264 50.034 47.301 50.0381 43.9441V43.9401V43.9381L50.0377 43.9375ZM33.5862 28.0158L23.5672 38.0226L19.5908 35.9108L30.9225 24.5934C31.9365 25.8206 32.8052 26.956 33.5862 28.0158ZM22.1152 11.4908L34.0982 17.1289L30.4804 22.2189L19.7306 22.4799L16.1088 18.8581L22.1152 11.4908ZM13.3137 18.7823L18.6625 24.1312C18.8478 24.3164 19.1028 24.418 19.3658 24.4121L28.6034 24.1889L17.8118 34.9668L6.1119 28.7509L13.3137 18.7823ZM43.9534 48.1012H33.1399C32.9746 48.1012 32.8072 48.0613 32.6578 47.9876L2.88655 33.2175L4.97439 30.3268L31.7576 44.5512C32.1919 44.7823 32.6799 44.9039 33.17 44.9039H47.9998C47.5655 46.7347 45.9158 48.1012 43.9534 48.1012ZM33.1695 42.9792C32.9922 42.9792 32.8169 42.9354 32.6595 42.8517L31.0996 42.023L38.5323 34.5923C39.9647 36.1502 41.5326 37.2937 43.8098 38.0348C46.063 38.7679 47.6707 40.6924 48.0332 42.9774L33.1695 42.9792Z" fill="#00AFCA"/>
<path d="M2.94835 41.9536H1.92438C1.39245 41.9536 0.962158 42.384 0.962158 42.9159C0.962158 43.4478 1.39247 43.8781 1.92438 43.8781H2.94835C3.48028 43.8781 3.91057 43.4478 3.91057 42.9159C3.91057 42.3859 3.48026 41.9536 2.94835 41.9536Z" fill="#00AFCA"/>
<path d="M11.146 46.0515H10.122C9.59008 46.0515 9.15979 46.4818 9.15979 47.0137C9.15979 47.5456 9.5901 47.9759 10.122 47.9759H11.146C11.6779 47.9759 12.1082 47.5456 12.1082 47.0137C12.1082 46.4838 11.6759 46.0515 11.146 46.0515Z" fill="#00AFCA"/>
</svg>
