<svg width="16" height="19" viewBox="0 0 16 19" fill="none" xmlns="http://www.w3.org/2000/svg">
<path d="M3.45313 0.000773036C3.19533 0.0265425 2.99903 0.255375 3 0.528533V1.05629H0.500004C0.484379 1.05526 0.468754 1.05526 0.453129 1.05629C0.195329 1.08206 -0.000971384 1.31089 3.61614e-06 1.58405V3.03539C3.61614e-06 4.92068 1.2959 6.49882 3 6.81204V6.86152C3 9.59716 4.9746 11.8475 7.5 12.1143V15.8334H4C3.17773 15.8334 2.5 16.5488 2.5 17.4167V18.4722C2.5 18.764 2.72364 19 3 19H13C13.2764 19 13.5 18.764 13.5 18.4722V17.4167C13.5 16.5488 12.8223 15.8334 12 15.8334H8.5V12.1143C11.0255 11.8473 13 9.59714 13 6.86152V6.81204C14.7041 6.49869 16 4.91952 16 3.03539V1.58405C16 1.29233 15.7764 1.05629 15.5 1.05629H13V0.528533C13 0.236814 12.7764 0.000773036 12.5 0.000773036H3.5C3.48438 -0.000257679 3.46875 -0.000257679 3.45313 0.000773036ZM4 1.05629H12V6.86165C12 9.20976 10.2246 11.0837 8 11.0837C5.7754 11.0837 4 9.20976 4 6.86165V1.05629ZM1 2.11181H3V5.7238C1.84765 5.43208 1 4.35287 1 3.03539V2.11181ZM13 2.11181H15V3.03539C15 4.35171 14.1524 5.43918 13 5.73198V2.11181ZM4 16.8891H12C12.2861 16.8891 12.5 17.1148 12.5 17.4169V17.9446H3.5V17.4169C3.5 17.1148 3.71387 16.8891 4 16.8891Z" fill="#00AFCA"/>
</svg>
