<svg width="25" height="25" viewBox="0 0 25 25" fill="none" xmlns="http://www.w3.org/2000/svg">
<path d="M16.7325 23.0897H16.6973L8.51479 22.9999C8.32046 22.997 8.13394 22.9169 7.99917 22.7753C7.8644 22.6347 7.79116 22.4452 7.79799 22.2499C7.79213 22.0546 7.86928 21.8671 8.00795 21.7304C8.1476 21.5946 8.33803 21.5224 8.53238 21.5321L16.7121 21.6298H16.7356C18.3381 21.6269 19.6408 20.3329 19.6526 18.7303V17.8074C19.6614 16.2 18.3703 14.8874 16.7628 14.8699L8.28032 14.8025C6.99224 14.7928 5.76182 14.2723 4.85832 13.3553C3.95402 12.4383 3.45207 11.2 3.46282 9.91202C3.47551 8.63272 3.99212 7.40902 4.90129 6.50777C5.80949 5.60542 7.03704 5.0986 8.31729 5.0947H16.0498C16.4355 5.11716 16.7373 5.43747 16.7373 5.8242C16.7373 6.20995 16.4355 6.53025 16.0498 6.55272H8.31729C6.45304 6.55663 4.93829 8.05857 4.91779 9.92272C4.90998 10.8241 5.26154 11.6913 5.89337 12.3338C6.52617 12.9764 7.38849 13.3407 8.28984 13.3475L16.7723 13.413V13.412C17.9325 13.4227 19.0419 13.8934 19.8563 14.7206C20.6698 15.5477 21.1229 16.6639 21.1151 17.8251V18.7479V18.747C21.1054 19.9032 20.6386 21.0077 19.8183 21.8212C18.997 22.6347 17.8878 23.0907 16.7325 23.0897Z" fill="#00AFCA"/>
<path d="M21.4179 2.95225L22.6376 1.90927L18.5576 1.91025C18.3799 1.91025 18.21 1.98056 18.085 2.10654C17.959 2.23252 17.8896 2.40244 17.8896 2.58016V6.21991C17.8896 6.71991 19.3623 6.71991 19.3623 6.21991V4.00019H22.6378L21.4179 2.95225Z" fill="#00AFCA"/>
<path d="M7.3174 16.7627C6.1836 15.6289 4.34565 15.6289 3.2129 16.7627C2.0791 17.8965 2.0791 19.7345 3.2129 20.8672L5.26562 22.92L7.31835 20.8672H7.31737C8.45017 19.7334 8.4502 17.8965 7.3174 16.7627ZM5.26467 20.3252C4.59572 20.3262 3.99122 19.9239 3.7344 19.3047C3.47757 18.6866 3.61819 17.9747 4.09182 17.501C4.56447 17.0264 5.2764 16.8848 5.89552 17.1407C6.5137 17.3965 6.91797 18.0001 6.91797 18.67C6.91797 19.5831 6.17777 20.3233 5.26467 20.3252Z" fill="#00AFCA"/>
</svg>
