<svg width="25" height="23" viewBox="0 0 25 23" fill="none" xmlns="http://www.w3.org/2000/svg">
<path d="M22.9167 4.48502C22.8828 4.47654 22.8622 4.47654 22.7218 4.47654L21.5471 4.47533H20.9138V2.90354C20.9138 2.89506 20.9041 2.88295 20.9029 2.86963C20.892 2.68072 20.8412 2.50151 20.7758 2.32713C20.4948 1.58121 19.8664 1.05805 19.1434 0.88247C19.0199 0.852197 18.8964 0.827978 18.7693 0.821924C18.7523 0.820713 18.7341 0.825557 18.7208 0.809814H2.37546C2.36093 0.825557 2.34276 0.820713 2.32581 0.821924C2.0594 0.837666 1.80752 0.901845 1.56535 1.00599C1.0398 1.23364 0.638973 1.59815 0.373768 2.10673C0.255097 2.33318 0.177597 2.57415 0.14248 2.82724C0.136426 2.86841 0.132793 2.91079 0.127949 2.95317C0.124316 2.98345 0.11584 3.01372 0.100098 3.03673V18.2001C0.100098 18.2037 0.11584 18.2049 0.118262 18.2098C0.124316 18.2207 0.126739 18.2328 0.130371 18.2449C0.150957 18.3127 0.184863 18.3732 0.238145 18.4205C0.338654 18.5101 0.454904 18.5488 0.590523 18.5173C0.652281 18.5028 0.706773 18.475 0.757631 18.4362C0.888414 18.3369 1.01919 18.2364 1.14997 18.1371C2.37785 17.1986 3.60576 16.2601 4.8337 15.3217L4.81917 16.6464C4.81311 17.1611 5.01049 17.6479 5.37258 18.0136C5.73587 18.3805 6.21903 18.5827 6.73366 18.5827L19.7041 18.5839L24.2716 22.1089C24.3406 22.1622 24.4242 22.1901 24.5102 22.1901C24.5683 22.1901 24.6276 22.1768 24.6821 22.1501C24.8153 22.0847 24.9001 21.9491 24.9001 21.8002V6.83305C24.9001 5.66813 24.0671 4.6824 22.9167 4.48502ZM0.965942 17.2955C0.9502 17.3076 0.933246 17.3185 0.917504 17.3294C0.909027 17.3354 0.896918 17.3269 0.895707 17.3173C0.894496 17.31 0.894496 17.3027 0.894496 17.2955V17.2434V3.18551C0.894496 2.95785 0.938088 2.73989 1.03254 2.53281C1.17664 2.21918 1.40188 1.97939 1.69976 1.80747C1.88503 1.69969 2.08484 1.63431 2.29675 1.60403C2.38031 1.59192 2.46507 1.58708 2.54984 1.58708C5.21392 1.58829 7.87905 1.58829 10.5432 1.58829H18.5365C18.7182 1.58829 18.8938 1.61372 19.0657 1.67063C19.5658 1.8329 19.9993 2.2543 20.118 2.86097C20.1386 2.96874 20.1483 3.07773 20.1483 3.18793V11.6596C20.1483 11.949 20.1495 12.2384 20.1483 12.5266C20.1446 13.1127 19.8431 13.6238 19.3939 13.912C19.2025 14.0355 18.9942 14.113 18.769 14.1457C18.6927 14.1566 18.6152 14.1614 18.5377 14.1614C15.9778 14.1602 13.4178 14.1602 10.8581 14.1602H5.29516C5.25762 14.1602 5.22008 14.1614 5.18254 14.1614C5.10262 14.1626 5.03118 14.1905 4.967 14.2353C4.93309 14.2595 4.89918 14.2862 4.86649 14.3116C3.75607 15.1605 2.64562 16.0093 1.53523 16.8582C1.34632 17.0059 1.15603 17.1501 0.965942 17.2955ZM24.1214 21.0083L20.0756 17.8866C20.0078 17.8334 19.9242 17.8055 19.837 17.8055H6.7324C6.42724 17.8055 6.14024 17.6856 5.92469 17.4677C5.70915 17.2497 5.5929 16.9615 5.59653 16.6563L5.61469 14.9925C5.61469 14.9743 5.61348 14.9574 5.61106 14.9392H18.556C18.6868 14.9392 18.8152 14.9283 18.9423 14.9065C19.1821 14.8666 19.411 14.7915 19.6265 14.6777C20.1932 14.3761 20.5807 13.9196 20.795 13.3166C20.8532 13.1543 20.8931 12.9884 20.9028 12.814C20.904 12.8055 20.9125 12.7971 20.9125 12.7874V5.25407H21.5458C22.046 5.25407 22.6587 5.25528 22.8004 5.25528C23.5669 5.39575 24.1227 6.05449 24.1227 6.83436L24.1203 21.0085L24.1214 21.0083Z" fill="#00AFCA"/>
<path d="M17.3864 11.0787C17.4567 11.0085 17.5003 10.914 17.5003 10.8075C17.5003 10.5919 17.3259 10.4224 17.1103 10.4224L3.86869 10.4212C3.76092 10.4212 3.66404 10.4611 3.59381 10.5314C3.52358 10.6016 3.47998 10.6961 3.47998 10.8026C3.47998 11.0182 3.65436 11.1998 3.8699 11.1998H17.1115C17.2181 11.1998 17.315 11.1489 17.3864 11.0787Z" fill="#00AFCA"/>
<path d="M3.86841 8.19417H17.1101C17.2178 8.19417 17.3147 8.14331 17.3849 8.07308C17.4552 8.00284 17.4988 7.90839 17.4988 7.80183C17.4988 7.58628 17.3244 7.41674 17.1089 7.41674L3.86845 7.41432C3.76067 7.41432 3.6638 7.45428 3.59357 7.52452C3.52333 7.59475 3.47974 7.6892 3.47974 7.79577C3.47974 8.01131 3.65408 8.19417 3.86841 8.19417Z" fill="#00AFCA"/>
<path d="M3.86841 5.18748H17.1101C17.2178 5.18748 17.3147 5.13662 17.3849 5.06639C17.4552 4.99615 17.4988 4.9017 17.4988 4.79514C17.4988 4.57959 17.3244 4.41005 17.1089 4.41005L3.86845 4.40884C3.76067 4.40884 3.6638 4.44881 3.59357 4.51904C3.52333 4.58927 3.47974 4.68373 3.47974 4.79029C3.47974 5.00463 3.65408 5.18748 3.86841 5.18748Z" fill="#00AFCA"/>
</svg>
