<svg width="29" height="29" viewBox="0 0 29 29" fill="none" xmlns="http://www.w3.org/2000/svg">
<path d="M6.63608 11.9563L3.29887 14.4003C3.28297 14.4205 3.26129 14.4653 3.23961 14.5159C3.23961 14.5174 3.23672 14.5159 3.23094 14.513L3.16012 14.4827L3.15289 14.4841C3.1818 14.5506 3.1948 14.6229 3.19336 14.6937L3.35524 18.3503C3.35813 18.4501 3.41016 18.5093 3.47086 18.531C3.50555 18.544 3.54168 18.5469 3.57926 18.5454C3.61539 18.544 3.65152 18.5368 3.68332 18.5194C3.74258 18.492 3.78738 18.4298 3.78449 18.3301L3.63418 14.9596H3.63274C3.62407 14.7761 3.71801 14.6099 3.86399 14.5174L5.75447 13.1342L6.04642 13.5331L5.75157 13.1313C5.97415 12.9694 6.28489 13.0171 6.44532 13.2383C6.52337 13.3423 6.55227 13.4695 6.53782 13.588L6.35427 19.0326H6.35571C6.35571 19.0832 6.3615 19.1323 6.37161 19.1757C6.38318 19.2205 6.39907 19.2638 6.42075 19.3072C6.47856 19.4243 6.48724 19.5543 6.45255 19.67L5.87587 22.5259L5.39024 22.4276L5.87875 22.5259C5.83828 22.7225 5.68797 22.8699 5.50298 22.9133L1.31162 24.3094C1.29428 24.3166 1.27549 24.3239 1.2567 24.3297C1.20611 24.3499 1.16709 24.3875 1.14252 24.4323C1.11939 24.4771 1.11361 24.532 1.12807 24.584C1.12951 24.5913 1.13385 24.5985 1.13529 24.6043C1.15553 24.6548 1.19311 24.6939 1.23791 24.7184C1.28416 24.7416 1.34197 24.7473 1.39978 24.73C1.41713 24.7242 1.43447 24.7184 1.45181 24.7156L6.30066 23.3512V23.3497C6.31512 23.3468 6.32812 23.3425 6.34258 23.3411C6.37437 23.3295 6.40328 23.3136 6.42785 23.2905C6.45098 23.2673 6.47121 23.2384 6.48277 23.2038L6.48566 23.1893L7.10715 20.3478L7.59278 20.4519L7.10715 20.3449C7.1245 20.2654 7.15918 20.1946 7.20833 20.1354C7.28204 20.0327 7.37309 19.9446 7.48438 19.8824C7.64481 19.7943 7.82548 19.7654 8.03217 19.8188C8.10299 19.8391 8.16514 19.8709 8.21861 19.9142L11.0399 21.8726L10.758 22.2802L11.0413 21.8726C11.1512 21.9478 11.222 22.062 11.2451 22.1848L12.5675 26.9227H12.569C12.5719 26.9342 12.5748 26.9458 12.5777 26.9574C12.5936 27.0094 12.6268 27.0513 12.6702 27.0788C12.7164 27.1077 12.7742 27.1192 12.832 27.1062L12.8465 27.1033C12.8985 27.0874 12.9404 27.0542 12.9679 27.0108C12.9968 26.9646 13.0084 26.9068 12.9954 26.849L11.8218 21.8107C11.8203 21.7991 11.816 21.789 11.8145 21.7789C11.8059 21.763 11.7827 21.7211 11.7538 21.6705C11.7235 21.6502 11.696 21.6286 11.6686 21.6011L8.60739 19.0516C8.59439 19.0429 8.58427 19.0357 8.5756 19.0313C8.56403 19.0256 8.55392 19.0227 8.5438 19.0183L8.54958 19.0024L8.54814 19.001L8.54235 19.0183C8.33712 18.9576 8.19837 18.7741 8.18825 18.5703L7.78066 13.8946C7.75754 13.6214 7.95988 13.3801 8.23162 13.357C8.38771 13.3439 8.52935 13.4018 8.63052 13.5044L10.2319 15.1058C10.2406 15.1144 10.2493 15.1231 10.2579 15.1332L10.2868 15.1621C10.3042 15.1708 10.3461 15.1853 10.3938 15.1997C10.4805 15.2257 10.5065 15.2503 10.5166 15.2489V15.2474C10.5239 15.246 10.5325 15.2445 10.5398 15.2416L14.1906 14.5117C14.2904 14.4915 14.3424 14.4337 14.3525 14.3701C14.3583 14.3383 14.3583 14.2993 14.3496 14.2602C14.3424 14.2198 14.3279 14.1865 14.3091 14.1576C14.273 14.1027 14.2051 14.0695 14.1054 14.0883L10.797 14.7502C10.6236 14.7849 10.4559 14.7242 10.3417 14.6071L7.67227 11.9478C7.52196 11.7975 7.3702 11.7295 7.22568 11.7252C7.04213 11.7223 6.83844 11.8088 6.63608 11.9563ZM2.6904 13.6184L6.05074 11.1585C6.42363 10.8853 6.83122 10.7277 7.24892 10.7379C7.64781 10.7466 8.03516 10.9041 8.37771 11.2466L10.8651 13.734L13.9133 13.1256C14.4755 13.0128 14.9019 13.2571 15.1432 13.63C15.2328 13.7673 15.295 13.9205 15.3253 14.078C15.3557 14.2341 15.3571 14.3989 15.3282 14.5608C15.2473 14.9973 14.9467 15.3861 14.3859 15.4988L10.7235 16.2301V16.2287C10.6136 16.2489 10.3463 16.2272 10.1222 16.1622C9.96613 16.1174 9.8057 16.0524 9.68574 15.9627C9.65972 15.9468 9.6366 15.9266 9.61491 15.9035L9.61636 15.902L9.55855 15.8442C9.54988 15.8356 9.5412 15.8283 9.53109 15.8182L8.88936 15.1765L9.15674 18.229L9.16397 18.2348C9.1842 18.2478 9.20155 18.2608 9.22034 18.2752L9.21889 18.2767L12.2309 20.7857C12.3162 20.8204 12.3913 20.8797 12.4622 20.9577C12.507 21.0083 12.5518 21.0748 12.5937 21.1456C12.6544 21.2497 12.718 21.3884 12.7556 21.4939C12.77 21.5243 12.7816 21.5575 12.7874 21.5922L13.961 26.6305C14.0361 26.9557 13.974 27.2794 13.8092 27.5425C13.6517 27.7954 13.4016 27.9905 13.0938 28.0715C13.0721 28.0787 13.049 28.0845 13.0229 28.0874C12.7108 28.151 12.3986 28.0874 12.1442 27.9284C11.8913 27.7708 11.6962 27.5208 11.6152 27.2129C11.6094 27.1956 11.6065 27.1783 11.6022 27.1609L10.3289 22.5966L7.98748 20.9706L7.45417 23.4103C7.45272 23.4248 7.44839 23.4378 7.4455 23.4523H7.44405C7.38624 23.6719 7.27061 23.8627 7.11741 24.0101C6.96999 24.1532 6.78643 24.2573 6.58986 24.3108C6.58408 24.3122 6.57686 24.3137 6.56963 24.3165L6.56385 24.318L1.72203 25.6809C1.70902 25.6838 1.6989 25.6881 1.6859 25.6925C1.37949 25.7864 1.06152 25.7503 0.791236 25.6144C0.523852 25.4786 0.305611 25.2459 0.197201 24.9438C0.189974 24.9265 0.184193 24.9091 0.179857 24.8918C0.0859103 24.5854 0.122045 24.2674 0.257905 23.9971C0.393765 23.7283 0.627905 23.5086 0.931416 23.4031C0.938642 23.4002 0.945869 23.3973 0.954541 23.3944H0.955986V23.3959L4.96235 22.0604L5.461 19.5918C5.43932 19.5325 5.42053 19.4704 5.40607 19.4082C5.37717 19.2897 5.36271 19.164 5.36271 19.0397V19.0238H5.36416L5.51592 14.5405L4.63428 15.1865L4.77158 18.2939C4.7976 18.8663 4.49119 19.2493 4.08938 19.43C3.9434 19.4964 3.78297 19.5326 3.61966 19.5398C3.45923 19.547 3.29447 19.5239 3.1427 19.4704C2.725 19.3245 2.38823 18.9675 2.36366 18.398L2.1989 14.7038L2.22925 14.7023C2.21769 14.5246 2.24948 14.3092 2.32897 14.1242C2.39835 13.9667 2.49519 13.8034 2.61804 13.6834C2.63972 13.6559 2.66294 13.6357 2.6904 13.6184ZM3.18469 14.4711C3.17601 14.474 3.16734 14.4783 3.15867 14.4827L3.22949 14.513C3.22082 14.5058 3.20492 14.4913 3.18469 14.4711ZM1.11065 23.8599L1.09764 23.8237L1.10487 23.8469L1.11065 23.8599Z" fill="#00AFCA"/>
<path d="M7.73756 6.53906C8.31569 6.53906 8.8389 6.7732 9.219 7.15334C9.59766 7.53199 9.83328 8.05666 9.83328 8.63478C9.83328 9.21291 9.59914 9.73612 9.219 10.1162C8.84035 10.4949 8.31569 10.7305 7.73756 10.7305C7.15944 10.7305 6.63622 10.4964 6.25612 10.1162C5.87746 9.73757 5.64185 9.21291 5.64185 8.63478C5.64185 8.05666 5.87599 7.53344 6.25612 7.15334C6.63622 6.77468 7.15944 6.53906 7.73756 6.53906ZM8.51804 7.85719C8.31859 7.65774 8.04252 7.53344 7.73901 7.53344C7.43549 7.53344 7.15944 7.65629 6.95997 7.85719C6.76052 8.05809 6.63622 8.33271 6.63622 8.63622C6.63622 8.93974 6.75907 9.21579 6.95997 9.41526C7.15942 9.61471 7.43549 9.73901 7.73901 9.73901C8.04252 9.73901 8.31857 9.61616 8.51804 9.41526C8.71749 9.21581 8.84179 8.93973 8.84179 8.63622C8.84179 8.33126 8.71749 8.05521 8.51804 7.85719Z" fill="#00AFCA"/>
<path d="M19.3941 5.54488L16.0569 7.98892C16.041 8.00915 16.0193 8.05396 15.9977 8.10454C15.9977 8.10599 15.9948 8.10454 15.989 8.10165L15.9182 8.0713L15.9109 8.07275C15.9399 8.13923 15.9529 8.2115 15.9514 8.28232L16.1133 11.939C16.1162 12.0387 16.1682 12.0979 16.2289 12.1196C16.2636 12.1326 16.2997 12.1355 16.3373 12.1341C16.3734 12.1326 16.4096 12.1254 16.4414 12.1081C16.5006 12.0806 16.5454 12.0184 16.5426 11.9187L16.3922 8.54824H16.3908C16.3821 8.36469 16.4761 8.19848 16.622 8.10598L18.5125 6.72281L18.8045 7.12171L18.5096 6.71992C18.7322 6.55805 19.043 6.60575 19.2034 6.82688C19.2814 6.93094 19.3103 7.05813 19.2959 7.17664L19.1123 12.6212H19.1138C19.1138 12.6718 19.1196 12.7209 19.1297 12.7643C19.1412 12.8091 19.1571 12.8524 19.1788 12.8958C19.2366 13.0129 19.2453 13.1429 19.2106 13.2586L18.6339 16.1145L18.1483 16.0163L18.6368 16.1145C18.5963 16.3111 18.446 16.4585 18.261 16.5019L14.0697 17.898C14.0523 17.9053 14.0335 17.9125 14.0148 17.9183C13.9642 17.9385 13.9251 17.9761 13.9006 18.0209C13.8775 18.0657 13.8717 18.1206 13.8861 18.1727C13.8876 18.1799 13.8919 18.1871 13.8934 18.1929C13.9136 18.2435 13.9512 18.2825 13.996 18.3071C14.0422 18.3302 14.1 18.336 14.1578 18.3186C14.1752 18.3128 14.1925 18.3071 14.2099 18.3042L19.0587 16.9398V16.9384C19.0732 16.9355 19.0862 16.9311 19.1006 16.9297C19.1324 16.9181 19.1613 16.9022 19.1859 16.8791C19.209 16.856 19.2293 16.8271 19.2408 16.7924L19.2437 16.7779L19.8652 13.9364L20.3508 14.0405L19.8652 13.9393C19.8826 13.8598 19.9172 13.789 19.9664 13.7312C20.0401 13.6286 20.1312 13.5404 20.2439 13.4783C20.4043 13.3901 20.585 13.3612 20.7917 13.4147C20.8625 13.4349 20.9246 13.4667 20.9781 13.5101L23.7994 15.4685L23.5175 15.8761L23.8008 15.4685C23.9107 15.5436 23.9815 15.6578 24.0046 15.7807L25.3271 20.5185H25.3285C25.3314 20.5301 25.3343 20.5416 25.3372 20.5532C25.3531 20.6052 25.3863 20.6471 25.4297 20.6746C25.4759 20.7035 25.5337 20.7151 25.5915 20.7021L25.606 20.6992C25.658 20.6833 25.6999 20.65 25.7274 20.6067C25.7563 20.5604 25.7679 20.5026 25.7549 20.4448L24.5813 15.4065C24.5798 15.3949 24.5755 15.3848 24.574 15.3747C24.5654 15.3588 24.5422 15.3169 24.5133 15.2663C24.483 15.2461 24.4555 15.2244 24.4281 15.1969L21.3669 12.6474C21.3539 12.6387 21.3438 12.6315 21.3351 12.6272C21.3235 12.6214 21.3134 12.6185 21.3033 12.6142L21.3091 12.5983L21.3076 12.5968L21.3019 12.6142C21.0966 12.5535 20.9579 12.3699 20.9478 12.1661L20.5387 7.49045C20.5156 7.21728 20.7179 6.97593 20.9897 6.9528C21.1458 6.93979 21.2874 6.99761 21.3886 7.10022L22.99 8.70162C22.9986 8.71029 23.0073 8.71897 23.016 8.72908L23.0449 8.75799C23.0622 8.76666 23.1042 8.78111 23.1519 8.79557C23.2386 8.82158 23.2646 8.84615 23.2747 8.84471V8.84326C23.2819 8.84181 23.2906 8.84037 23.2978 8.83748L26.9487 8.10758C27.0484 8.08735 27.1004 8.02953 27.1106 7.96594C27.1163 7.93414 27.1163 7.89512 27.1077 7.85609C27.1004 7.81562 27.086 7.78238 27.0672 7.75348C27.0311 7.69856 26.9631 7.66531 26.8634 7.6841L23.5551 8.34607C23.3817 8.38076 23.214 8.32006 23.0998 8.20298L20.4318 5.53495C20.2815 5.38464 20.1297 5.31671 19.9852 5.31237C19.8016 5.30948 19.5994 5.39601 19.3941 5.54488ZM15.4485 7.207L18.8088 4.74709C19.1817 4.47393 19.5893 4.31637 20.007 4.32651C20.4059 4.33518 20.7932 4.49272 21.1358 4.83526L23.6232 7.31974L26.6713 6.71127C27.2336 6.59854 27.6599 6.8428 27.9013 7.21569C27.9909 7.353 28.0531 7.5062 28.0834 7.66373C28.1138 7.81982 28.1152 7.98459 28.0863 8.14646C28.0054 8.58295 27.7047 8.97175 27.1439 9.08449L23.4815 9.81583V9.81439C23.3717 9.83462 23.1043 9.81294 22.8803 9.7479C22.7242 9.7031 22.5638 9.63805 22.4438 9.54845C22.4178 9.53255 22.3947 9.51231 22.373 9.48919L22.3744 9.48774L22.3166 9.42993C22.3079 9.42126 22.2993 9.41403 22.2891 9.40391L21.6474 8.76219L21.9148 11.8147L21.922 11.8205C21.9423 11.8335 21.9596 11.8465 21.9784 11.8609L21.9769 11.8624L24.989 14.3714C25.0742 14.4061 25.1494 14.4654 25.2202 14.5434C25.265 14.594 25.3098 14.6605 25.3517 14.7313C25.4124 14.8354 25.476 14.9741 25.5136 15.0796C25.5281 15.11 25.5396 15.1432 25.5454 15.1779L26.719 20.2162C26.7942 20.5414 26.732 20.8651 26.5673 21.1282C26.4097 21.3811 26.1597 21.5762 25.8518 21.6572C25.8301 21.6644 25.807 21.6702 25.781 21.6731C25.4688 21.7367 25.1566 21.6731 24.9023 21.5141C24.6493 21.3565 24.4542 21.1065 24.3733 20.7986C24.3675 20.7813 24.3646 20.764 24.3603 20.7466L23.0869 16.1823L20.7455 14.5563L20.2122 16.996C20.2108 17.0105 20.2064 17.0235 20.2036 17.0379H20.2021C20.1443 17.2576 20.0287 17.4484 19.8755 17.5958C19.728 17.7389 19.5445 17.843 19.3479 17.8965C19.3421 17.8979 19.3349 17.8993 19.3277 17.9022L19.3219 17.9037L14.4801 19.2666C14.4671 19.2695 14.457 19.2738 14.444 19.2782C14.1375 19.3721 13.8196 19.336 13.5493 19.2001C13.2819 19.0643 13.0637 18.8316 12.9553 18.5295C12.948 18.5122 12.9422 18.4948 12.9379 18.4775C12.844 18.1711 12.8801 17.8531 13.016 17.5828C13.1518 17.314 13.386 17.0943 13.6895 16.9888C13.6967 16.9859 13.7039 16.983 13.7126 16.9801H13.714V16.9816L17.7204 15.6461L18.2191 13.1775C18.1974 13.1182 18.1786 13.0561 18.1641 12.9939C18.1352 12.8754 18.1208 12.7497 18.1208 12.6254V12.6095H18.1222L18.274 8.12618L17.3923 8.77224L17.5296 11.8796C17.5557 12.452 17.2493 12.835 16.8474 13.0157C16.7015 13.0821 16.541 13.1183 16.3777 13.1255C16.2173 13.1327 16.0525 13.1096 15.9008 13.0561C15.4831 12.9102 15.1463 12.5531 15.1217 11.9837L14.957 8.28949L14.9873 8.28804C14.9757 8.11027 15.0075 7.89492 15.087 7.70992C15.1564 7.55238 15.2532 7.38906 15.3761 7.2691C15.3992 7.24453 15.4239 7.22434 15.4485 7.207ZM15.9457 8.05974C15.937 8.06263 15.9283 8.06696 15.9197 8.0713L15.9905 8.10165C15.9804 8.09442 15.963 8.07997 15.9457 8.05974ZM13.8716 17.4485L13.8586 17.4124L13.8659 17.4355L13.8716 17.4485Z" fill="#00AFCA"/>
<path d="M20.4981 0.127716C21.0762 0.127716 21.5994 0.361856 21.9795 0.74199C22.3582 1.12065 22.5938 1.64531 22.5938 2.22343C22.5938 2.80156 22.3596 3.32477 21.9795 3.70488C21.6008 4.08353 21.0762 4.31915 20.4981 4.31915C19.9199 4.31915 19.3967 4.08501 19.0166 3.70488C18.638 3.32622 18.4023 2.80156 18.4023 2.22343C18.4023 1.64531 18.6365 1.12209 19.0166 0.74199C19.3967 0.363332 19.9199 0.127716 20.4981 0.127716ZM21.2771 1.4444C21.0776 1.24495 20.8016 1.12065 20.4981 1.12065C20.1945 1.12065 19.9185 1.2435 19.719 1.4444C19.5196 1.64385 19.3953 1.91992 19.3953 2.22343C19.3953 2.52695 19.5181 2.803 19.719 3.00247C19.9185 3.20192 20.1945 3.32622 20.4981 3.32622C20.8016 3.32622 21.0776 3.20337 21.2771 3.00247C21.4765 2.80302 21.6008 2.52694 21.6008 2.22343C21.5994 1.91992 21.478 1.64386 21.2771 1.4444Z" fill="#00AFCA"/>
</svg>
