<svg width="30" height="25" viewBox="0 0 30 25" fill="none" xmlns="http://www.w3.org/2000/svg">
<path d="M29.4297 23.236L29.4225 23.21L27.0811 18.1007L22.852 15.015C22.7638 14.9485 22.7003 14.8487 22.6858 14.7375L22.534 13.613L22.6482 13.7011L26.5258 13.5494C26.5735 13.5451 26.6227 13.5422 26.666 13.5306C26.8293 13.4974 26.9768 13.4121 27.0909 13.2863C27.2383 13.1274 27.3164 12.9207 27.3048 12.7024L27.2499 11.2817C27.2311 10.8337 26.8539 10.4824 26.4029 10.5012L23.5571 10.6125L21.8256 9.12098L21.7404 8.65415C21.6002 7.84767 21.3443 7.25219 20.9671 6.82584C20.5306 6.33732 19.9453 6.10463 19.2284 6.13353C18.6994 6.15521 18.2586 6.34743 17.8337 6.53243C17.7889 6.55121 17.7456 6.57 17.7007 6.59168C17.2166 6.8027 16.7281 7.02096 16.2583 7.23486L13.2795 8.58188C12.8719 8.76688 12.7202 9.1152 12.5988 9.39991C12.5771 9.45483 12.554 9.50397 12.528 9.55601L11.3255 12.1012C10.8673 12.0723 10.045 11.9046 9.46395 11.7832C8.03164 11.4913 6.55164 11.1878 5.42725 11.4176L5.84494 13.4714C5.82326 13.467 5.79724 13.4641 5.77412 13.4641C4.34181 13.3341 2.88493 14.0148 1.43809 15.4847L1.36004 15.5656C1.06375 15.8691 0.727006 16.2088 0.487061 16.2507L0.838272 18.4418C1.80086 18.2857 2.43678 17.6425 2.94698 17.1208L3.02069 17.0427C3.97891 16.0701 4.84179 15.6075 5.58179 15.674C6.14112 15.7261 6.72502 16.0065 7.34362 16.3071C7.58065 16.4213 7.82492 16.5398 8.07641 16.6511C9.37141 17.2176 10.4554 17.5688 11.4917 17.7567C12.528 17.949 13.5816 17.9706 14.5442 17.8203C15.6542 17.6498 16.6428 17.2581 17.4753 16.6626C17.6314 16.5513 17.7745 16.4372 17.9118 16.3259L15.7958 18.7265L11.152 20.2687C10.6259 20.4421 10.3383 20.9942 10.4929 21.5232L10.8109 22.6188C10.8889 22.8818 11.0624 23.0957 11.3023 23.2287C11.5162 23.3472 11.7648 23.3804 12.0018 23.3327C12.0278 23.3255 12.0538 23.3212 12.0798 23.3139L16.942 21.8672L21.5596 18.3377L24.2161 20.2325L26.452 24.213C26.6182 24.6567 27.088 24.9082 27.5476 24.8128C27.5808 24.8055 27.614 24.7983 27.6473 24.7868L28.8093 24.4052C29.2935 24.2433 29.5667 23.7317 29.4293 23.2359L29.4297 23.236ZM23.3147 11.3194L26.4337 11.198C26.5002 11.1937 26.5551 11.2457 26.5595 11.3122L26.6144 12.7329C26.6144 12.7777 26.5956 12.8066 26.5812 12.8182C26.5696 12.8327 26.5407 12.8558 26.4959 12.8558L22.8739 12.996L22.3969 12.6217L22.2828 11.7603L22.0197 10.1993L23.3147 11.3194ZM11.8995 12.5248L13.1656 9.85386C13.1945 9.7946 13.2205 9.73535 13.2437 9.68042C13.3549 9.4246 13.4171 9.29163 13.5732 9.22225L16.552 7.87523C17.0217 7.66422 17.5059 7.44163 17.9843 7.23495C18.0291 7.21616 18.0725 7.19448 18.1173 7.17569C18.5162 7.00225 18.8616 6.85049 19.2605 6.83459C19.882 6.80857 20.7448 6.98635 21.0628 8.78431L21.1669 9.36532L21.7334 12.876L21.7927 13.3269L21.6886 13.3125C20.6596 13.1492 19.3833 12.9468 18.1664 13.4715L17.4611 10.1053L19.2331 9.39855L18.9743 8.75105L14.7193 10.445L13.9605 12.0463C13.9461 12.0536 13.9316 12.0579 13.9201 12.0608C13.9345 12.0565 13.949 12.0536 13.9605 12.0492L13.4012 13.2301C13.3636 13.3081 13.2711 13.3413 13.1945 13.3038L11.9732 12.7271C11.9212 12.7054 11.9024 12.6606 11.8923 12.6389C11.8807 12.6172 11.8778 12.5768 11.8995 12.5248ZM17.0506 11.5218C16.3555 11.3744 15.6227 11.4004 14.9448 11.6027L15.2339 10.9928L16.8064 10.367L17.0506 11.5218ZM16.698 14.4486C16.5173 14.596 16.3497 14.7405 16.1806 14.859C15.1183 15.6207 13.553 15.8809 11.8923 15.573C11.0266 15.414 10.0943 15.1105 8.96118 14.6148C8.75016 14.5223 8.53627 14.4182 8.30935 14.3084C7.72834 14.0266 7.08517 13.7129 6.36252 13.5539C7.09531 13.5612 8.14603 13.7765 9.02334 13.9572C9.74454 14.1046 10.4253 14.2419 11.0034 14.2983C11.1147 14.3098 11.2766 14.3243 11.4659 14.3243C11.8764 14.3243 12.4126 14.2534 12.8158 13.9022L12.8939 13.9398C13.0341 14.0063 13.183 14.0323 13.3304 14.0179C13.5269 14.1653 13.7784 14.2665 14.0892 14.2665C14.2742 14.2665 14.478 14.2289 14.6991 14.1479C14.9318 14.0627 15.1659 13.9369 15.3581 13.8372C15.4174 13.804 15.4983 13.7635 15.5388 13.7447C15.9941 13.5973 16.5014 13.619 16.9408 13.804L17.3324 12.8645L17.5319 13.8112C17.224 14.0121 16.9509 14.2375 16.698 14.4486ZM16.6214 21.2388L11.885 22.6408C11.7997 22.6668 11.7145 22.6552 11.6364 22.6148C11.5584 22.5743 11.5035 22.5035 11.4803 22.4225L11.1624 21.327C11.1147 21.1564 11.2072 20.983 11.3734 20.9281L16.1978 19.3267L18.8023 16.371L20.9702 17.9175L16.6214 21.2388ZM28.5902 23.7435L27.4281 24.1251C27.2908 24.1699 27.1434 24.0962 27.0986 23.9588L27.087 23.9299L24.7456 19.756L21.7452 17.6169L18.9297 15.6079C18.9181 15.6007 18.908 15.5891 18.8964 15.5819C18.9412 15.5559 18.9846 15.5342 19.0265 15.5154C19.6552 15.2336 20.4776 15.3637 21.3433 15.501L21.4691 15.5198L21.8015 13.3966L21.9937 14.8318C22.0342 15.1281 22.1975 15.4013 22.4374 15.579L26.5189 18.5578L28.7606 23.4459C28.7909 23.5731 28.7159 23.703 28.5902 23.7435Z" fill="#00AFCA"/>
<path d="M18.989 5.95444C20.5022 5.62924 21.4677 4.13766 21.1454 2.62444C20.8202 1.11121 19.3286 0.145734 17.8154 0.468041C16.3021 0.793237 15.3367 2.28481 15.659 3.79804C15.9842 5.30982 17.4801 6.27963 18.989 5.95444ZM17.9599 1.1474C19.0959 0.903138 20.2204 1.63158 20.4646 2.76759C20.7089 3.9036 19.9804 5.02807 18.8444 5.27231C17.7084 5.51656 16.584 4.78812 16.3397 3.65211C16.0955 2.5161 16.8239 1.39163 17.9599 1.1474Z" fill="#00AFCA"/>
</svg>
